<svg width="56" height="56" viewBox="0 0 56 56" fill="none" xmlns="http://www.w3.org/2000/svg">
<g filter="url(#filter0_d_70_847)">
<path d="M4 24C4 37.2548 14.7452 48 28 48C41.2548 48 52 37.2548 52 24C52 10.7452 41.2548 0 28 0C14.7452 0 4 10.7452 4 24Z" fill="#1877F2"/>
<path d="M40 24C40 17.4 34.6 12 28 12C21.4 12 16 17.4 16 24C16 30 20.35 34.95 26.05 35.85V27.45H23.05V24H26.05V21.3C26.05 18.3 27.85 16.65 30.55 16.65C31.9 16.65 33.25 16.95 33.25 16.95V19.95H31.75C30.25 19.95 29.8 20.85 29.8 21.75V24H33.1L32.5 27.45H29.65V36C35.65 35.1 40 30 40 24Z" fill="white"/>
</g>
<defs>
<filter id="filter0_d_70_847" x="0" y="0" width="56" height="56" filterUnits="userSpaceOnUse" color-interpolation-filters="sRGB">
<feFlood flood-opacity="0" result="BackgroundImageFix"/>
<feColorMatrix in="SourceAlpha" type="matrix" values="0 0 0 0 0 0 0 0 0 0 0 0 0 0 0 0 0 0 127 0" result="hardAlpha"/>
<feOffset dy="4"/>
<feGaussianBlur stdDeviation="2"/>
<feComposite in2="hardAlpha" operator="out"/>
<feColorMatrix type="matrix" values="0 0 0 0 0.541667 0 0 0 0 0.530382 0 0 0 0 0.530382 0 0 0 0.29 0"/>
<feBlend mode="normal" in2="BackgroundImageFix" result="effect1_dropShadow_70_847"/>
<feBlend mode="normal" in="SourceGraphic" in2="effect1_dropShadow_70_847" result="shape"/>
</filter>
</defs>
</svg>
