<svg width="56" height="56" viewBox="0 0 56 56" fill="none" xmlns="http://www.w3.org/2000/svg">
<g filter="url(#filter0_d_70_850)">
<path d="M4 24C4 37.2548 14.7452 48 28 48C41.2548 48 52 37.2548 52 24C52 10.7452 41.2548 0 28 0C14.7452 0 4 10.7452 4 24Z" fill="#2867B2"/>
<path d="M21.4 36H16.3V19.95H21.4V36ZM18.85 17.7C17.2 17.7 16 16.5 16 14.85C16 13.2 17.35 12 18.85 12C20.5 12 21.7 13.2 21.7 14.85C21.7 16.5 20.5 17.7 18.85 17.7ZM40 36H34.9V27.3C34.9 24.75 33.85 24 32.35 24C30.85 24 29.35 25.2 29.35 27.45V36H24.25V19.95H29.05V22.2C29.5 21.15 31.3 19.5 33.85 19.5C36.7 19.5 39.7 21.15 39.7 26.1V36H40Z" fill="white"/>
</g>
<defs>
<filter id="filter0_d_70_850" x="0" y="0" width="56" height="56" filterUnits="userSpaceOnUse" color-interpolation-filters="sRGB">
<feFlood flood-opacity="0" result="BackgroundImageFix"/>
<feColorMatrix in="SourceAlpha" type="matrix" values="0 0 0 0 0 0 0 0 0 0 0 0 0 0 0 0 0 0 127 0" result="hardAlpha"/>
<feOffset dy="4"/>
<feGaussianBlur stdDeviation="2"/>
<feComposite in2="hardAlpha" operator="out"/>
<feColorMatrix type="matrix" values="0 0 0 0 0.541667 0 0 0 0 0.530382 0 0 0 0 0.530382 0 0 0 0.29 0"/>
<feBlend mode="normal" in2="BackgroundImageFix" result="effect1_dropShadow_70_850"/>
<feBlend mode="normal" in="SourceGraphic" in2="effect1_dropShadow_70_850" result="shape"/>
</filter>
</defs>
</svg>
