<svg width="56" height="56" viewBox="0 0 56 56" fill="none" xmlns="http://www.w3.org/2000/svg">
<g filter="url(#filter0_d_70_829)">
<path d="M52 24C52 10.7452 41.2548 0 28 0C14.7452 0 4 10.7452 4 24C4 37.2548 14.7452 48 28 48C41.2548 48 52 37.2548 52 24Z" fill="#4A154B"/>
<path d="M21.0636 27.172C21.0636 28.5669 19.9362 29.6942 18.5413 29.6942C17.1464 29.6942 16.019 28.5669 16.019 27.172C16.019 25.777 17.1464 24.6497 18.5413 24.6497H21.0636V27.172Z" fill="#E01E5A"/>
<path d="M22.3252 27.1721C22.3252 25.7772 23.4526 24.6498 24.8475 24.6498C26.2424 24.6498 27.3698 25.7772 27.3698 27.1721V33.4778C27.3698 34.8727 26.2424 36.0001 24.8475 36.0001C23.4526 36.0001 22.3252 34.8727 22.3252 33.4778V27.1721Z" fill="#E01E5A"/>
<path d="M24.8475 17.0446C23.4526 17.0446 22.3252 15.9172 22.3252 14.5223C22.3252 13.1274 23.4526 12 24.8475 12C26.2424 12 27.3698 13.1274 27.3698 14.5223V17.0446H24.8475Z" fill="#36C5F0"/>
<path d="M24.8471 18.3248C26.242 18.3248 27.3694 19.4522 27.3694 20.8471C27.3694 22.242 26.242 23.3694 24.8471 23.3694H18.5223C17.1274 23.3694 16 22.242 16 20.8471C16 19.4522 17.1274 18.3248 18.5223 18.3248H24.8471Z" fill="#36C5F0"/>
<path d="M34.9558 20.8471C34.9558 19.4522 36.0832 18.3248 37.4781 18.3248C38.873 18.3248 40.0004 19.4522 40.0004 20.8471C40.0004 22.242 38.873 23.3694 37.4781 23.3694H34.9558V20.8471Z" fill="#2EB67D"/>
<path d="M33.6942 20.8471C33.6942 22.242 32.5669 23.3694 31.172 23.3694C29.777 23.3694 28.6497 22.242 28.6497 20.8471V14.5223C28.6497 13.1274 29.777 12 31.172 12C32.5669 12 33.6942 13.1274 33.6942 14.5223V20.8471Z" fill="#2EB67D"/>
<path d="M31.172 30.9554C32.5669 30.9554 33.6942 32.0828 33.6942 33.4777C33.6942 34.8726 32.5669 36 31.172 36C29.777 36 28.6497 34.8726 28.6497 33.4777V30.9554H31.172Z" fill="#ECB22E"/>
<path d="M31.172 29.6942C29.777 29.6942 28.6497 28.5669 28.6497 27.172C28.6497 25.777 29.777 24.6497 31.172 24.6497H37.4968C38.8917 24.6497 40.0191 25.777 40.0191 27.172C40.0191 28.5669 38.8917 29.6942 37.4968 29.6942H31.172Z" fill="#ECB22E"/>
</g>
<defs>
<filter id="filter0_d_70_829" x="0" y="0" width="56" height="56" filterUnits="userSpaceOnUse" color-interpolation-filters="sRGB">
<feFlood flood-opacity="0" result="BackgroundImageFix"/>
<feColorMatrix in="SourceAlpha" type="matrix" values="0 0 0 0 0 0 0 0 0 0 0 0 0 0 0 0 0 0 127 0" result="hardAlpha"/>
<feOffset dy="4"/>
<feGaussianBlur stdDeviation="2"/>
<feComposite in2="hardAlpha" operator="out"/>
<feColorMatrix type="matrix" values="0 0 0 0 0.541667 0 0 0 0 0.530382 0 0 0 0 0.530382 0 0 0 0.29 0"/>
<feBlend mode="normal" in2="BackgroundImageFix" result="effect1_dropShadow_70_829"/>
<feBlend mode="normal" in="SourceGraphic" in2="effect1_dropShadow_70_829" result="shape"/>
</filter>
</defs>
</svg>
