<svg width="56" height="56" viewBox="0 0 56 56" fill="none" xmlns="http://www.w3.org/2000/svg">
<g filter="url(#filter0_d_70_853)">
<path d="M4 24C4 37.2548 14.7452 48 28 48C41.2548 48 52 37.2548 52 24C52 10.7452 41.2548 0 28 0C14.7452 0 4 10.7452 4 24Z" fill="#1DA1F2"/>
<path d="M40 16.5C39.1 16.95 38.2 17.1 37.15 17.25C38.2 16.65 38.95 15.75 39.25 14.55C38.35 15.15 37.3 15.45 36.1 15.75C35.2 14.85 33.85 14.25 32.5 14.25C29.35 14.25 26.95 17.25 27.7 20.25C23.65 20.1 20.05 18.15 17.5 15.15C16.15 17.4 16.9 20.25 19 21.75C18.25 21.75 17.5 21.45 16.75 21.15C16.75 23.4 18.4 25.5 20.65 26.1C19.9 26.25 19.15 26.4 18.4 26.25C19 28.2 20.8 29.7 23.05 29.7C21.25 31.05 18.55 31.8 16 31.5C18.25 32.85 20.8 33.75 23.5 33.75C32.65 33.75 37.75 26.1 37.45 19.05C38.5 18.45 39.4 17.55 40 16.5Z" fill="white"/>
</g>
<defs>
<filter id="filter0_d_70_853" x="0" y="0" width="56" height="56" filterUnits="userSpaceOnUse" color-interpolation-filters="sRGB">
<feFlood flood-opacity="0" result="BackgroundImageFix"/>
<feColorMatrix in="SourceAlpha" type="matrix" values="0 0 0 0 0 0 0 0 0 0 0 0 0 0 0 0 0 0 127 0" result="hardAlpha"/>
<feOffset dy="4"/>
<feGaussianBlur stdDeviation="2"/>
<feComposite in2="hardAlpha" operator="out"/>
<feColorMatrix type="matrix" values="0 0 0 0 0.541667 0 0 0 0 0.530382 0 0 0 0 0.530382 0 0 0 0.29 0"/>
<feBlend mode="normal" in2="BackgroundImageFix" result="effect1_dropShadow_70_853"/>
<feBlend mode="normal" in="SourceGraphic" in2="effect1_dropShadow_70_853" result="shape"/>
</filter>
</defs>
</svg>
